<svg width="22" height="25" viewBox="0 0 22 25" fill="none" xmlns="http://www.w3.org/2000/svg">
<path d="M11 0.349609C12.4322 0.349609 13.8057 0.918944 14.8184 1.93164L15.0029 2.12598C15.8998 3.11654 16.4004 4.4074 16.4004 5.75V6.34961H21.6504V21.5C21.6504 22.2833 21.3582 23.0364 20.835 23.6143L20.7275 23.7275C20.1368 24.3183 19.3354 24.6504 18.5 24.6504H3.5C2.71674 24.6504 1.96359 24.3582 1.38574 23.835L1.27246 23.7275C0.681721 23.1368 0.349609 22.3354 0.349609 21.5V6.34961H5.59961V5.75C5.59961 4.31783 6.16894 2.94434 7.18164 1.93164L7.37598 1.74707C8.36654 0.850202 9.6574 0.349609 11 0.349609ZM2.15039 21.5C2.15039 21.858 2.29175 22.2019 2.54492 22.4551L2.64453 22.5439C2.88477 22.7408 3.18667 22.8496 3.5 22.8496H18.5C18.858 22.8496 19.2019 22.7083 19.4551 22.4551L19.5439 22.3555C19.7408 22.1152 19.8496 21.8133 19.8496 21.5V8.15039H2.15039V21.5ZM11 2.15039C10.0452 2.15039 9.12923 2.52897 8.4541 3.2041C7.77897 3.87923 7.40039 4.79522 7.40039 5.75V6.34961H14.5996V5.75C14.5996 4.79522 14.221 3.87923 13.5459 3.2041C12.8708 2.52897 11.9548 2.15039 11 2.15039Z" fill="black" stroke="black" stroke-width="0.3"/>
</svg>
